<mxfile host="app.diagrams.net" modified="2024-04-10T14:37:55.195Z" agent="Mozilla/5.0 (Windows NT 10.0; Win64; x64) AppleWebKit/537.36 (KHTML, like Gecko) Chrome/123.0.0.0 Safari/537.36" version="24.2.3" etag="7PjuSY5EV4fdJBteQVAJ" type="github">
  <diagram name="หน้า-1" id="miF1A3QjI8MwzpK2BQW4">
    <mxGraphModel>
      <root>
        <mxCell id="0" />
        <mxCell id="1" parent="0" />
      </root>
    </mxGraphModel>
  </diagram>
</mxfile>
